# xmcd
#
# Track frame offsets:
#	150
#	16288
#	34895
#	59235
#	79564
#	95855
#	114129
#	129991
#	147917
#	163318
#	179829
#	196431
#	217255
#	233990
#	252984
#	273859
#	293760
#
# Disc length: 4135 seconds
# Revision: 1
# Processed by: cddbd v1.5.2PL0 Copyright (c) Steve Scherf et al.
# Submitted via: dBpowerAMP V12.0
#
DISCID=08102511
DTITLE=Grady Champion - Shanachie Days
DYEAR=2012
DGENRE=Blues
TTITLE0=Brother, Brother
TTITLE1=I'm Smilin' Again
TTITLE2=Lady Luck
TTITLE3=Policeman Blues
TTITLE4=Dreamin'
TTITLE5=Roberta
TTITLE6=Love Is My Middle Name
TTITLE7=Let Me Be
TTITLE8=Honeybee
TTITLE9=Payin' For My Sins
TTITLE10=Stop Chasing Me
TTITLE11=Nothing I Can Do
TTITLE12=Children Of The Corn
TTITLE13=You Got Some Explaining To Do
TTITLE14=Troubled Mind
TTITLE15=Wine And Women
TTITLE16=My Rooster Is King
EXTD=
EXTT0=
EXTT1=
EXTT2=
EXTT3=
EXTT4=
EXTT5=
EXTT6=
EXTT7=
EXTT8=
EXTT9=
EXTT10=
EXTT11=
EXTT12=
EXTT13=
EXTT14=
EXTT15=
EXTT16=
PLAYORDER=
